<mxfile host="65bd71144e">
    <diagram id="upSE5JlRlV2InqusmRxe" name="Page-1">
        <mxGraphModel dx="813" dy="617" grid="0" gridSize="10" guides="1" tooltips="1" connect="1" arrows="1" fold="1" page="1" pageScale="1" pageWidth="827" pageHeight="1169" background="none" math="0" shadow="0">
            <root>
                <mxCell id="0"/>
                <mxCell id="1" parent="0"/>
                <mxCell id="o_bM5a3YPDPlbq46B6bi-27" style="edgeStyle=orthogonalEdgeStyle;rounded=0;orthogonalLoop=1;jettySize=auto;html=1;exitX=0.5;exitY=1;exitDx=0;exitDy=0;entryX=0;entryY=0.25;entryDx=0;entryDy=0;" parent="1" source="o_bM5a3YPDPlbq46B6bi-1" target="o_bM5a3YPDPlbq46B6bi-25" edge="1">
                    <mxGeometry relative="1" as="geometry"/>
                </mxCell>
                <mxCell id="o_bM5a3YPDPlbq46B6bi-1" value="%xmm0" style="rounded=0;whiteSpace=wrap;html=1;" parent="1" vertex="1">
                    <mxGeometry x="190" y="100" width="50" height="30" as="geometry"/>
                </mxCell>
                <mxCell id="o_bM5a3YPDPlbq46B6bi-56" style="edgeStyle=orthogonalEdgeStyle;rounded=0;orthogonalLoop=1;jettySize=auto;html=1;exitDx=0;exitDy=0;startArrow=none;" parent="1" source="o_bM5a3YPDPlbq46B6bi-63" target="o_bM5a3YPDPlbq46B6bi-36" edge="1">
                    <mxGeometry relative="1" as="geometry"/>
                </mxCell>
                <mxCell id="o_bM5a3YPDPlbq46B6bi-4" value="%rbp" style="rounded=0;whiteSpace=wrap;html=1;" parent="1" vertex="1">
                    <mxGeometry x="250" y="100" width="50" height="30" as="geometry"/>
                </mxCell>
                <mxCell id="o_bM5a3YPDPlbq46B6bi-42" style="edgeStyle=orthogonalEdgeStyle;rounded=0;orthogonalLoop=1;jettySize=auto;html=1;exitDx=0;exitDy=0;startArrow=none;exitPerimeter=0;entryX=0;entryY=0.25;entryDx=0;entryDy=0;" parent="1" source="o_bM5a3YPDPlbq46B6bi-52" target="o_bM5a3YPDPlbq46B6bi-23" edge="1">
                    <mxGeometry relative="1" as="geometry">
                        <Array as="points">
                            <mxPoint x="335" y="362"/>
                        </Array>
                    </mxGeometry>
                </mxCell>
                <mxCell id="o_bM5a3YPDPlbq46B6bi-5" value="%rcx" style="rounded=0;whiteSpace=wrap;html=1;" parent="1" vertex="1">
                    <mxGeometry x="310" y="100" width="50" height="30" as="geometry"/>
                </mxCell>
                <mxCell id="o_bM5a3YPDPlbq46B6bi-57" style="edgeStyle=orthogonalEdgeStyle;rounded=0;orthogonalLoop=1;jettySize=auto;html=1;exitX=0.5;exitY=1;exitDx=0;exitDy=0;entryX=0.5;entryY=0;entryDx=0;entryDy=0;" parent="1" source="o_bM5a3YPDPlbq46B6bi-6" target="o_bM5a3YPDPlbq46B6bi-38" edge="1">
                    <mxGeometry relative="1" as="geometry"/>
                </mxCell>
                <mxCell id="o_bM5a3YPDPlbq46B6bi-6" value="%rax" style="rounded=0;whiteSpace=wrap;html=1;" parent="1" vertex="1">
                    <mxGeometry x="370" y="100" width="50" height="30" as="geometry"/>
                </mxCell>
                <mxCell id="o_bM5a3YPDPlbq46B6bi-58" style="edgeStyle=orthogonalEdgeStyle;rounded=0;orthogonalLoop=1;jettySize=auto;html=1;exitX=0.5;exitY=1;exitDx=0;exitDy=0;entryX=0.5;entryY=0;entryDx=0;entryDy=0;" parent="1" source="o_bM5a3YPDPlbq46B6bi-7" target="o_bM5a3YPDPlbq46B6bi-39" edge="1">
                    <mxGeometry relative="1" as="geometry"/>
                </mxCell>
                <mxCell id="o_bM5a3YPDPlbq46B6bi-7" value="%rbx" style="rounded=0;whiteSpace=wrap;html=1;" parent="1" vertex="1">
                    <mxGeometry x="426" y="100" width="50" height="30" as="geometry"/>
                </mxCell>
                <mxCell id="o_bM5a3YPDPlbq46B6bi-16" style="edgeStyle=orthogonalEdgeStyle;rounded=0;orthogonalLoop=1;jettySize=auto;html=1;exitX=1;exitY=0.5;exitDx=0;exitDy=0;entryX=1;entryY=0.25;entryDx=0;entryDy=0;" parent="1" source="o_bM5a3YPDPlbq46B6bi-8" target="o_bM5a3YPDPlbq46B6bi-15" edge="1">
                    <mxGeometry relative="1" as="geometry">
                        <Array as="points">
                            <mxPoint x="590" y="215"/>
                            <mxPoint x="590" y="252"/>
                        </Array>
                    </mxGeometry>
                </mxCell>
                <mxCell id="o_bM5a3YPDPlbq46B6bi-8" value="load" style="rounded=1;whiteSpace=wrap;html=1;" parent="1" vertex="1">
                    <mxGeometry x="520" y="200" width="50" height="30" as="geometry"/>
                </mxCell>
                <mxCell id="o_bM5a3YPDPlbq46B6bi-17" style="edgeStyle=orthogonalEdgeStyle;rounded=0;orthogonalLoop=1;jettySize=auto;html=1;exitX=1;exitY=0.5;exitDx=0;exitDy=0;entryX=1;entryY=0.5;entryDx=0;entryDy=0;" parent="1" source="o_bM5a3YPDPlbq46B6bi-12" target="o_bM5a3YPDPlbq46B6bi-15" edge="1">
                    <mxGeometry relative="1" as="geometry">
                        <mxPoint x="580" y="270" as="targetPoint"/>
                        <Array as="points">
                            <mxPoint x="600" y="175"/>
                            <mxPoint x="600" y="259"/>
                        </Array>
                    </mxGeometry>
                </mxCell>
                <mxCell id="o_bM5a3YPDPlbq46B6bi-12" value="load" style="rounded=1;whiteSpace=wrap;html=1;" parent="1" vertex="1">
                    <mxGeometry x="520" y="160" width="50" height="30" as="geometry"/>
                </mxCell>
                <mxCell id="o_bM5a3YPDPlbq46B6bi-40" style="edgeStyle=orthogonalEdgeStyle;rounded=0;orthogonalLoop=1;jettySize=auto;html=1;exitX=1;exitY=0.75;exitDx=0;exitDy=0;entryX=1;entryY=0.5;entryDx=0;entryDy=0;" parent="1" source="o_bM5a3YPDPlbq46B6bi-15" target="o_bM5a3YPDPlbq46B6bi-25" edge="1">
                    <mxGeometry relative="1" as="geometry">
                        <Array as="points">
                            <mxPoint x="590" y="267"/>
                            <mxPoint x="590" y="309"/>
                        </Array>
                    </mxGeometry>
                </mxCell>
                <mxCell id="o_bM5a3YPDPlbq46B6bi-15" value="mul" style="rounded=1;whiteSpace=wrap;html=1;" parent="1" vertex="1">
                    <mxGeometry x="520" y="244" width="50" height="30" as="geometry"/>
                </mxCell>
                <mxCell id="o_bM5a3YPDPlbq46B6bi-29" style="edgeStyle=orthogonalEdgeStyle;rounded=0;orthogonalLoop=1;jettySize=auto;html=1;exitX=0;exitY=0.5;exitDx=0;exitDy=0;entryX=0;entryY=0.5;entryDx=0;entryDy=0;" parent="1" source="o_bM5a3YPDPlbq46B6bi-19" target="o_bM5a3YPDPlbq46B6bi-28" edge="1">
                    <mxGeometry relative="1" as="geometry">
                        <Array as="points">
                            <mxPoint x="520" y="414"/>
                            <mxPoint x="500" y="414"/>
                            <mxPoint x="500" y="449"/>
                        </Array>
                    </mxGeometry>
                </mxCell>
                <mxCell id="o_bM5a3YPDPlbq46B6bi-19" value="cmp" style="rounded=1;whiteSpace=wrap;html=1;" parent="1" vertex="1">
                    <mxGeometry x="520" y="397" width="50" height="30" as="geometry"/>
                </mxCell>
                <mxCell id="o_bM5a3YPDPlbq46B6bi-24" style="edgeStyle=orthogonalEdgeStyle;rounded=0;orthogonalLoop=1;jettySize=auto;html=1;exitX=1;exitY=0.5;exitDx=0;exitDy=0;entryX=1;entryY=0.5;entryDx=0;entryDy=0;" parent="1" source="o_bM5a3YPDPlbq46B6bi-23" target="o_bM5a3YPDPlbq46B6bi-19" edge="1">
                    <mxGeometry relative="1" as="geometry"/>
                </mxCell>
                <mxCell id="o_bM5a3YPDPlbq46B6bi-55" style="edgeStyle=orthogonalEdgeStyle;rounded=0;orthogonalLoop=1;jettySize=auto;html=1;exitX=0;exitY=0.5;exitDx=0;exitDy=0;entryX=0.5;entryY=0;entryDx=0;entryDy=0;" parent="1" source="o_bM5a3YPDPlbq46B6bi-23" target="o_bM5a3YPDPlbq46B6bi-37" edge="1">
                    <mxGeometry relative="1" as="geometry">
                        <Array as="points">
                            <mxPoint x="520" y="374"/>
                            <mxPoint x="335" y="374"/>
                        </Array>
                    </mxGeometry>
                </mxCell>
                <mxCell id="o_bM5a3YPDPlbq46B6bi-23" value="add" style="rounded=1;whiteSpace=wrap;html=1;" parent="1" vertex="1">
                    <mxGeometry x="520" y="354" width="50" height="30" as="geometry"/>
                </mxCell>
                <mxCell id="o_bM5a3YPDPlbq46B6bi-41" style="edgeStyle=orthogonalEdgeStyle;rounded=0;orthogonalLoop=1;jettySize=auto;html=1;exitX=0;exitY=0.75;exitDx=0;exitDy=0;entryX=0.5;entryY=0;entryDx=0;entryDy=0;" parent="1" source="o_bM5a3YPDPlbq46B6bi-25" target="o_bM5a3YPDPlbq46B6bi-35" edge="1">
                    <mxGeometry relative="1" as="geometry"/>
                </mxCell>
                <mxCell id="o_bM5a3YPDPlbq46B6bi-25" value="add" style="rounded=1;whiteSpace=wrap;html=1;" parent="1" vertex="1">
                    <mxGeometry x="520" y="294" width="50" height="30" as="geometry"/>
                </mxCell>
                <mxCell id="o_bM5a3YPDPlbq46B6bi-28" value="jne" style="rounded=1;whiteSpace=wrap;html=1;" parent="1" vertex="1">
                    <mxGeometry x="520" y="434" width="50" height="30" as="geometry"/>
                </mxCell>
                <mxCell id="o_bM5a3YPDPlbq46B6bi-35" value="%xmm0" style="rounded=0;whiteSpace=wrap;html=1;" parent="1" vertex="1">
                    <mxGeometry x="190" y="454" width="50" height="30" as="geometry"/>
                </mxCell>
                <mxCell id="o_bM5a3YPDPlbq46B6bi-36" value="%rbp" style="rounded=0;whiteSpace=wrap;html=1;" parent="1" vertex="1">
                    <mxGeometry x="250" y="454" width="50" height="30" as="geometry"/>
                </mxCell>
                <mxCell id="o_bM5a3YPDPlbq46B6bi-37" value="%rcx" style="rounded=0;whiteSpace=wrap;html=1;" parent="1" vertex="1">
                    <mxGeometry x="310" y="454" width="50" height="30" as="geometry"/>
                </mxCell>
                <mxCell id="o_bM5a3YPDPlbq46B6bi-38" value="%rax" style="rounded=0;whiteSpace=wrap;html=1;" parent="1" vertex="1">
                    <mxGeometry x="370" y="454" width="50" height="30" as="geometry"/>
                </mxCell>
                <mxCell id="o_bM5a3YPDPlbq46B6bi-39" value="%rbx" style="rounded=0;whiteSpace=wrap;html=1;" parent="1" vertex="1">
                    <mxGeometry x="426" y="454" width="50" height="30" as="geometry"/>
                </mxCell>
                <mxCell id="o_bM5a3YPDPlbq46B6bi-45" value="" style="shape=waypoint;sketch=0;fillStyle=solid;size=6;pointerEvents=1;points=[];fillColor=none;resizable=0;rotatable=0;perimeter=centerPerimeter;snapToPoint=1;" parent="1" vertex="1">
                    <mxGeometry x="315" y="164" width="40" height="40" as="geometry"/>
                </mxCell>
                <mxCell id="o_bM5a3YPDPlbq46B6bi-46" value="" style="edgeStyle=orthogonalEdgeStyle;rounded=0;orthogonalLoop=1;jettySize=auto;html=1;exitX=0.5;exitY=1;exitDx=0;exitDy=0;entryDx=0;entryDy=0;endArrow=none;" parent="1" source="o_bM5a3YPDPlbq46B6bi-5" target="o_bM5a3YPDPlbq46B6bi-45" edge="1">
                    <mxGeometry relative="1" as="geometry">
                        <mxPoint x="335" y="130" as="sourcePoint"/>
                        <mxPoint x="335" y="460" as="targetPoint"/>
                    </mxGeometry>
                </mxCell>
                <mxCell id="o_bM5a3YPDPlbq46B6bi-51" value="" style="endArrow=classic;html=1;rounded=0;exitX=0.975;exitY=0.95;exitDx=0;exitDy=0;exitPerimeter=0;entryX=0;entryY=0.75;entryDx=0;entryDy=0;" parent="1" source="o_bM5a3YPDPlbq46B6bi-45" target="o_bM5a3YPDPlbq46B6bi-12" edge="1">
                    <mxGeometry width="50" height="50" relative="1" as="geometry">
                        <mxPoint x="390" y="420" as="sourcePoint"/>
                        <mxPoint x="440" y="370" as="targetPoint"/>
                    </mxGeometry>
                </mxCell>
                <mxCell id="o_bM5a3YPDPlbq46B6bi-52" value="" style="shape=waypoint;sketch=0;fillStyle=solid;size=6;pointerEvents=1;points=[];fillColor=none;resizable=0;rotatable=0;perimeter=centerPerimeter;snapToPoint=1;" parent="1" vertex="1">
                    <mxGeometry x="315" y="190" width="40" height="40" as="geometry"/>
                </mxCell>
                <mxCell id="o_bM5a3YPDPlbq46B6bi-53" value="" style="edgeStyle=orthogonalEdgeStyle;rounded=0;orthogonalLoop=1;jettySize=auto;html=1;exitDx=0;exitDy=0;entryDx=0;entryDy=0;startArrow=none;exitX=0.3;exitY=1.025;exitPerimeter=0;endArrow=none;" parent="1" source="o_bM5a3YPDPlbq46B6bi-45" target="o_bM5a3YPDPlbq46B6bi-52" edge="1">
                    <mxGeometry relative="1" as="geometry">
                        <mxPoint x="335" y="184" as="sourcePoint"/>
                        <mxPoint x="335" y="460" as="targetPoint"/>
                    </mxGeometry>
                </mxCell>
                <mxCell id="o_bM5a3YPDPlbq46B6bi-54" value="" style="endArrow=classic;html=1;rounded=0;entryX=0;entryY=0.25;entryDx=0;entryDy=0;exitX=0.525;exitY=0.575;exitDx=0;exitDy=0;exitPerimeter=0;" parent="1" source="o_bM5a3YPDPlbq46B6bi-52" target="o_bM5a3YPDPlbq46B6bi-8" edge="1">
                    <mxGeometry width="50" height="50" relative="1" as="geometry">
                        <mxPoint x="390" y="420" as="sourcePoint"/>
                        <mxPoint x="440" y="370" as="targetPoint"/>
                    </mxGeometry>
                </mxCell>
                <mxCell id="o_bM5a3YPDPlbq46B6bi-59" value="" style="shape=waypoint;sketch=0;fillStyle=solid;size=6;pointerEvents=1;points=[];fillColor=none;resizable=0;rotatable=0;perimeter=centerPerimeter;snapToPoint=1;" parent="1" vertex="1">
                    <mxGeometry x="431" y="384" width="40" height="40" as="geometry"/>
                </mxCell>
                <mxCell id="o_bM5a3YPDPlbq46B6bi-60" value="" style="endArrow=classic;html=1;rounded=0;entryX=0;entryY=0.25;entryDx=0;entryDy=0;exitX=0.65;exitY=0.6;exitDx=0;exitDy=0;exitPerimeter=0;" parent="1" source="o_bM5a3YPDPlbq46B6bi-59" target="o_bM5a3YPDPlbq46B6bi-19" edge="1">
                    <mxGeometry width="50" height="50" relative="1" as="geometry">
                        <mxPoint x="390" y="420" as="sourcePoint"/>
                        <mxPoint x="440" y="370" as="targetPoint"/>
                    </mxGeometry>
                </mxCell>
                <mxCell id="o_bM5a3YPDPlbq46B6bi-61" value="" style="shape=waypoint;sketch=0;fillStyle=solid;size=6;pointerEvents=1;points=[];fillColor=none;resizable=0;rotatable=0;perimeter=centerPerimeter;snapToPoint=1;" parent="1" vertex="1">
                    <mxGeometry x="375" y="204" width="40" height="40" as="geometry"/>
                </mxCell>
                <mxCell id="o_bM5a3YPDPlbq46B6bi-62" value="" style="endArrow=classic;html=1;rounded=0;entryX=0;entryY=0.75;entryDx=0;entryDy=0;" parent="1" source="o_bM5a3YPDPlbq46B6bi-61" target="o_bM5a3YPDPlbq46B6bi-8" edge="1">
                    <mxGeometry width="50" height="50" relative="1" as="geometry">
                        <mxPoint x="390" y="420" as="sourcePoint"/>
                        <mxPoint x="440" y="370" as="targetPoint"/>
                    </mxGeometry>
                </mxCell>
                <mxCell id="o_bM5a3YPDPlbq46B6bi-63" value="" style="shape=waypoint;sketch=0;fillStyle=solid;size=6;pointerEvents=1;points=[];fillColor=none;resizable=0;rotatable=0;perimeter=centerPerimeter;snapToPoint=1;" parent="1" vertex="1">
                    <mxGeometry x="255" y="150" width="40" height="40" as="geometry"/>
                </mxCell>
                <mxCell id="o_bM5a3YPDPlbq46B6bi-64" value="" style="edgeStyle=orthogonalEdgeStyle;rounded=0;orthogonalLoop=1;jettySize=auto;html=1;exitX=0.5;exitY=1;exitDx=0;exitDy=0;endArrow=none;" parent="1" source="o_bM5a3YPDPlbq46B6bi-4" target="o_bM5a3YPDPlbq46B6bi-63" edge="1">
                    <mxGeometry relative="1" as="geometry">
                        <mxPoint x="275" y="130" as="sourcePoint"/>
                        <mxPoint x="275" y="454" as="targetPoint"/>
                    </mxGeometry>
                </mxCell>
                <mxCell id="o_bM5a3YPDPlbq46B6bi-65" value="" style="endArrow=classic;html=1;rounded=0;entryX=0;entryY=0.25;entryDx=0;entryDy=0;" parent="1" source="o_bM5a3YPDPlbq46B6bi-63" target="o_bM5a3YPDPlbq46B6bi-12" edge="1">
                    <mxGeometry width="50" height="50" relative="1" as="geometry">
                        <mxPoint x="230" y="162.5" as="sourcePoint"/>
                        <mxPoint x="545" y="150" as="targetPoint"/>
                    </mxGeometry>
                </mxCell>
            </root>
        </mxGraphModel>
    </diagram>
</mxfile>